#tb 0: 1/25
#media_type 0: video
#codec_id 0: rawvideo
#dimensions 0: 416x240
#sar 0: 0/1
0,          0,          0,        1,   149760, 0xfbb3d914
0,          1,          1,        1,   149760, 0xdccd707b
0,          2,          2,        1,   149760, 0x32008963
0,          3,          3,        1,   149760, 0x0fcdd808
0,          4,          4,        1,   149760, 0x69f0e1a5
0,          5,          5,        1,   149760, 0x1be36c09
0,          6,          6,        1,   149760, 0x18a1588f
0,          7,          7,        1,   149760, 0xdc46acd8
0,          8,          8,        1,   149760, 0xec46760a
0,          9,          9,        1,   149760, 0xe87fc7b5
0,         10,         10,        1,   149760, 0x7c78d960
0,         11,         11,        1,   149760, 0x73e2ea91
0,         12,         12,        1,   149760, 0x9164db8c
0,         13,         13,        1,   149760, 0x31a6124b
0,         14,         14,        1,   149760, 0x8a143aed
0,         15,         15,        1,   149760, 0x15a364f4
0,         16,         16,        1,   149760, 0x93b8560e
0,         17,         17,        1,   149760, 0xc2aa985c
0,         18,         18,        1,   149760, 0xe83ca4da
0,         19,         19,        1,   149760, 0x6c79cb07
0,         20,         20,        1,   149760, 0x2c24c739
0,         21,         21,        1,   149760, 0x6a60f769
0,         22,         22,        1,   149760, 0x13f00ad1
0,         23,         23,        1,   149760, 0x59dd330d
0,         24,         24,        1,   149760, 0x8815348c
0,         25,         25,        1,   149760, 0x88576cd4
0,         26,         26,        1,   149760, 0xfa3d6b9c
0,         27,         27,        1,   149760, 0x810c8145
0,         28,         28,        1,   149760, 0xf2357fcc
0,         29,         29,        1,   149760, 0xc885a093
0,         30,         30,        1,   149760, 0x5939a048
0,         31,         31,        1,   149760, 0x9f93a489
0,         32,         32,        1,   149760, 0xc11a879e
0,         33,         33,        1,   149760, 0x5221c04b
0,         34,         34,        1,   149760, 0x7dcdca90
0,         35,         35,        1,   149760, 0xfdd8df1e
0,         36,         36,        1,   149760, 0x3a88c802
0,         37,         37,        1,   149760, 0x50ff1081
0,         38,         38,        1,   149760, 0x6388f458
0,         39,         39,        1,   149760, 0x85623a2b
0,         40,         40,        1,   149760, 0x1bfd34a4
0,         41,         41,        1,   149760, 0xb6037b88
0,         42,         42,        1,   149760, 0xd24e65c7
0,         43,         43,        1,   149760, 0xd2bd8fac
0,         44,         44,        1,   149760, 0x602f64d0
0,         45,         45,        1,   149760, 0x59415d5e
0,         46,         46,        1,   149760, 0x9faf5737
0,         47,         47,        1,   149760, 0x66ce56a9
